<svg width="23" height="22" viewBox="0 0 23 22" fill="none" xmlns="http://www.w3.org/2000/svg">
<path d="M1.5 19.4615V2.53846C1.5 2.13043 1.66209 1.73912 1.9506 1.4506C2.23912 1.16209 2.63043 1 3.03846 1H19.9615C20.3695 1 20.7609 1.16209 21.0494 1.4506C21.3378 1.73912 21.5 2.13043 21.5 2.53846V19.4615C21.5 19.8695 21.3378 20.2609 21.0494 20.5494C20.7609 20.8378 20.3695 21 19.9615 21H15.3462V13.7077H16.4385C16.6874 13.7077 16.926 13.6088 17.102 13.4328C17.278 13.2568 17.3769 13.0181 17.3769 12.7692V11.5846C17.3769 11.4614 17.3526 11.3393 17.3055 11.2255C17.2583 11.1116 17.1892 11.0082 17.102 10.921C17.0149 10.8339 16.9114 10.7648 16.7975 10.7176C16.6837 10.6704 16.5617 10.6462 16.4385 10.6462H15.4077V9.2C15.4077 7.90769 15.9923 7.90769 16.5769 7.90769H17.3308C17.4546 7.9128 17.578 7.89063 17.6923 7.84279C17.8066 7.79494 17.9091 7.72255 17.9923 7.63077C18.0817 7.54566 18.1525 7.44291 18.2002 7.32905C18.2478 7.21517 18.2714 7.09266 18.2692 6.96923V5.83077C18.2734 5.70549 18.2528 5.58063 18.2085 5.46334C18.1643 5.34603 18.0975 5.23858 18.0117 5.14714C17.926 5.05571 17.8231 4.98205 17.7089 4.9304C17.5948 4.87875 17.4714 4.85012 17.3462 4.84615H15.5769C15.0607 4.82674 14.5464 4.91963 14.0696 5.1184C13.5927 5.31715 13.1647 5.61706 12.8151 5.99739C12.4655 6.37772 12.2026 6.8294 12.0446 7.32125C11.8866 7.81309 11.8373 8.33337 11.9 8.84616V10.6462H10.9154C10.7909 10.6441 10.6672 10.6669 10.5515 10.7131C10.4359 10.7594 10.3306 10.8282 10.2418 10.9155C10.153 11.0029 10.0825 11.107 10.0344 11.2219C9.98629 11.3368 9.96152 11.4601 9.96154 11.5846V12.7692C9.96152 12.8938 9.98629 13.0171 10.0344 13.132C10.0825 13.2468 10.153 13.351 10.2418 13.4383C10.3306 13.5257 10.4359 13.5945 10.5515 13.6407C10.6672 13.687 10.7909 13.7097 10.9154 13.7077H11.9V21H3.03846C2.63043 21 2.23912 20.8378 1.9506 20.5494C1.66209 20.2609 1.5 19.8695 1.5 19.4615Z" stroke="white" stroke-width="1.71429" stroke-linecap="round" stroke-linejoin="round"/>
</svg>
