<svg width="23" height="22" viewBox="0 0 23 22" fill="none" xmlns="http://www.w3.org/2000/svg">
<path d="M17.2818 5.63995C17.0517 5.63995 16.8654 5.45351 16.8654 5.22354C16.8654 4.99356 17.0517 4.80713 17.2818 4.80713" stroke="white" stroke-width="1.71429" stroke-linecap="round" stroke-linejoin="round"/>
<path d="M17.2818 5.63995C17.5118 5.63995 17.6982 5.45351 17.6982 5.22354C17.6982 4.99356 17.5118 4.80713 17.2818 4.80713" stroke="white" stroke-width="1.71429" stroke-linecap="round" stroke-linejoin="round"/>
<path d="M1.5 5.28571C1.5 2.91879 3.41877 1 5.78571 1H17.2143C19.5812 1 21.5 2.91879 21.5 5.28571V16.7143C21.5 19.0812 19.5812 21 17.2143 21H5.78571C3.41877 21 1.5 19.0812 1.5 16.7143V5.28571Z" stroke="white" stroke-width="1.71429" stroke-linecap="round" stroke-linejoin="round"/>
<path d="M7.25266 10.9998C7.25266 11.5576 7.36252 12.1099 7.57597 12.6252C7.78942 13.1405 8.10228 13.6088 8.49668 14.0032C8.89109 14.3976 9.35931 14.7104 9.87463 14.9239C10.3899 15.1373 10.9423 15.2472 11.5 15.2472C12.0578 15.2472 12.6101 15.1373 13.1254 14.9239C13.6407 14.7104 14.109 14.3976 14.5034 14.0032C14.8978 13.6088 15.2106 13.1405 15.4241 12.6252C15.6375 12.1099 15.7474 11.5576 15.7474 10.9998C15.7474 9.87335 15.2999 8.79301 14.5034 7.99647C13.7068 7.19993 12.6265 6.75244 11.5 6.75244C10.3736 6.75244 9.29322 7.19993 8.49668 7.99647C7.70014 8.79301 7.25266 9.87335 7.25266 10.9998Z" stroke="white" stroke-width="1.71429" stroke-linecap="round" stroke-linejoin="round"/>
</svg>
