<svg width="10" height="7" viewBox="0 0 10 7" fill="none" xmlns="http://www.w3.org/2000/svg">
<path d="M4.99216 6.96395C4.82555 6.96436 4.6641 6.89174 4.53581 6.7587L0.257587 2.29672C0.111972 2.14525 0.0204009 1.92758 0.00301722 1.69161C-0.0143664 1.45564 0.0438616 1.22069 0.164892 1.03844C0.285922 0.856202 0.45984 0.741597 0.648386 0.719841C0.836931 0.698084 1.02466 0.770959 1.17027 0.922433L4.99216 4.92037L8.81404 1.06522C8.88698 0.991089 8.9709 0.935732 9.06098 0.902328C9.15107 0.868924 9.24554 0.858132 9.33896 0.870571C9.43239 0.88301 9.52294 0.918436 9.60539 0.974812C9.68784 1.03119 9.76058 1.1074 9.81942 1.19908C9.88472 1.29083 9.93418 1.39848 9.96469 1.51527C9.9952 1.63206 10.0061 1.75548 9.99674 1.8778C9.98737 2.00011 9.95792 2.11868 9.91023 2.22609C9.86254 2.3335 9.79764 2.42742 9.7196 2.50197L5.44137 6.81225C5.3094 6.92426 5.15124 6.97767 4.99216 6.96395Z" fill="white"/>
</svg>
