<svg width="18" height="19" viewBox="0 0 18 19" fill="none" xmlns="http://www.w3.org/2000/svg">
<path d="M1 1.34106H4.00749L5.07888 11.9934C5.12341 12.287 5.27256 12.5547 5.49887 12.747C5.72517 12.9394 6.01337 13.0435 6.31036 13.0401H14.0687C14.3373 13.0542 14.603 12.9799 14.8253 12.8287C15.0477 12.6775 15.2145 12.4576 15.3002 12.2027L16.938 7.2768C16.9991 7.09161 17.0154 6.89455 16.9853 6.70187C16.9554 6.50918 16.88 6.32637 16.7656 6.16847C16.6464 6.00059 16.4869 5.86529 16.302 5.77492C16.117 5.68457 15.9122 5.64205 15.7066 5.65125H4.43851" stroke="white" stroke-width="1.71429" stroke-linecap="round" stroke-linejoin="round"/>
<path d="M13.8594 17.3506C13.5194 17.3506 13.2437 17.0749 13.2437 16.7349C13.2437 16.3949 13.5194 16.1191 13.8594 16.1191C14.1994 16.1191 14.4751 16.3949 14.4751 16.7349C14.4751 17.0749 14.1994 17.3506 13.8594 17.3506Z" stroke="white" stroke-width="1.71429" stroke-linecap="round" stroke-linejoin="round"/>
<path d="M5.85463 17.3506C5.51456 17.3506 5.23889 17.0749 5.23889 16.7349C5.23889 16.3949 5.51456 16.1191 5.85463 16.1191C6.19469 16.1191 6.47037 16.3949 6.47037 16.7349C6.47037 17.0749 6.19469 17.3506 5.85463 17.3506Z" stroke="white" stroke-width="1.71429" stroke-linecap="round" stroke-linejoin="round"/>
</svg>
